<?xml version="1.0" standalone="no"?>
<!DOCTYPE svg PUBLIC "-//W3C//DTD SVG 20010904//EN"
 "http://www.w3.org/TR/2001/REC-SVG-20010904/DTD/svg10.dtd">
<svg version="1.0" xmlns="http://www.w3.org/2000/svg"
 width="582.000000pt" height="578.000000pt" viewBox="0 0 582.000000 578.000000"
 preserveAspectRatio="xMidYMid meet">
<metadata>
Created by potrace 1.16, written by Peter Selinger 2001-2019
</metadata>
<g transform="translate(0.000000,578.000000) scale(0.100000,-0.100000)"
fill="#000000" stroke="none">
<path d="M537 4613 c-3 -5 19 -48 48 -98 126 -217 213 -369 280 -485 40 -69
98 -170 130 -225 32 -55 66 -113 75 -130 43 -74 131 -227 173 -297 l46 -78
-394 0 c-217 0 -395 -3 -395 -7 0 -5 23 -48 51 -98 28 -49 62 -110 76 -135 14
-25 29 -49 33 -55 4 -5 70 -118 145 -250 76 -132 147 -255 159 -273 l21 -34
390 1 c215 1 395 -2 402 -7 6 -4 79 -124 161 -267 82 -143 161 -279 175 -302
15 -24 27 -45 27 -48 0 -3 11 -23 25 -45 14 -22 67 -113 118 -202 52 -90 120
-208 152 -263 32 -55 67 -116 78 -135 11 -19 65 -114 122 -210 56 -96 126
-218 155 -270 80 -141 85 -146 113 -92 14 28 79 141 182 317 32 55 90 156 130
225 40 69 134 233 210 365 76 132 156 268 177 303 21 34 38 64 38 66 0 3 27
51 61 108 34 57 102 174 151 262 50 87 99 167 109 177 17 17 44 18 391 19 281
0 375 3 384 13 6 6 89 147 184 312 95 165 201 348 235 407 49 83 60 108 48
112 -8 3 -179 6 -380 6 l-365 0 25 43 c14 23 34 58 44 77 11 19 46 80 78 135
63 108 118 204 240 415 43 74 85 149 95 165 10 17 51 89 93 160 41 72 98 170
126 218 28 49 49 93 46 98 -7 11 -4662 13 -4668 2z m4619 -70 c-18 -32 -46
-81 -63 -109 -17 -27 -41 -70 -55 -95 -14 -24 -42 -73 -63 -109 -21 -36 -45
-78 -55 -95 -9 -16 -77 -133 -150 -260 -284 -491 -330 -573 -330 -584 0 -8
105 -11 374 -13 l374 -3 -77 -135 c-43 -74 -137 -238 -211 -365 -73 -126 -144
-249 -158 -273 l-24 -43 -380 1 c-209 1 -382 -1 -385 -3 -4 -5 -127 -214 -188
-322 -23 -40 -61 -105 -275 -475 -62 -107 -204 -352 -315 -545 -269 -467 -298
-515 -307 -515 -4 0 -8 4 -8 9 0 5 -43 82 -96 172 -53 90 -106 182 -119 204
-12 22 -73 128 -135 235 -348 601 -582 1005 -618 1070 -14 25 -37 63 -51 85
-13 22 -25 51 -25 63 l-1 24 -396 -1 c-219 -1 -404 2 -413 5 -12 5 -106 144
-106 158 0 2 -55 98 -122 212 -66 115 -132 229 -146 254 -14 25 -45 77 -68
115 l-43 70 395 3 c217 1 394 6 394 10 0 4 -11 25 -23 47 -27 46 -135 232
-399 690 -102 176 -217 376 -256 444 -40 68 -72 125 -72 127 0 2 1042 4 2314
4 l2315 0 -33 -57z"/>
<path d="M1023 4342 c-9 -6 14 -54 83 -172 83 -142 332 -574 384 -665 87 -154
122 -210 132 -217 18 -11 316 -10 323 2 3 5 -20 53 -51 107 -48 82 -101 174
-254 438 -9 17 -38 66 -64 109 -26 44 -48 83 -49 88 -1 4 604 9 1345 11 1341
2 1348 2 1341 -18 -3 -11 -16 -36 -29 -55 -12 -19 -74 -125 -137 -235 -207
-363 -350 -609 -372 -645 -12 -19 -33 -55 -47 -80 -14 -25 -55 -97 -91 -160
-36 -63 -63 -118 -61 -122 3 -5 250 -8 548 -8 l544 0 81 141 c44 78 78 145 75
150 -3 5 -171 9 -375 9 -203 0 -369 3 -369 6 0 4 31 59 69 123 60 101 146 250
201 346 9 17 77 134 150 260 73 127 173 300 222 385 50 85 94 161 100 167 6 7
8 20 4 28 -5 13 -212 15 -1848 15 -1014 0 -1849 -4 -1855 -8z"/>
<path d="M1018 3014 c-5 -5 100 -196 148 -269 l16 -25 382 0 382 0 21 -37 c39
-72 142 -250 182 -317 23 -36 41 -68 41 -70 0 -2 17 -33 38 -67 22 -35 50 -84
64 -109 14 -25 51 -90 83 -145 32 -55 69 -120 83 -145 13 -25 28 -49 32 -55 4
-5 50 -84 102 -175 92 -160 249 -429 268 -460 8 -13 10 -13 24 0 8 8 23 31 34
50 55 98 257 448 311 538 33 57 61 106 61 108 0 2 25 44 55 95 30 50 55 93 55
94 0 1 30 54 67 116 153 263 173 299 173 311 0 10 -34 13 -162 11 -89 -1 -165
-6 -169 -10 -8 -8 -116 -195 -347 -597 l-85 -148 -18 23 c-10 13 -33 51 -52
84 -18 33 -69 121 -112 195 -43 74 -110 191 -150 260 -39 69 -101 175 -137
236 -35 61 -68 117 -71 125 -4 8 -55 97 -115 199 l-109 185 -545 3 c-299 1
-547 0 -550 -4z"/>
</g>
</svg>
